# Blender 3.1.0
# www.blender.org
mtllib Cube.mtl
o Cube
v -1.000000 -1.000000 1.000000
v -1.000000 1.000000 1.000000
v -1.000000 -1.000000 -1.000000
v -1.000000 1.000000 -1.000000
v 1.000000 -1.000000 1.000000
v 1.000000 1.000000 1.000000
v 1.000000 -1.000000 -1.000000
v 1.000000 1.000000 -1.000000
v -0.712549 1.000000 0.712549
v -0.712549 1.000000 -0.712549
v 0.712549 1.000000 -0.712549
v 0.712549 1.000000 0.712549
v -0.267061 1.692910 0.267061
v -0.267061 1.692910 -0.267061
v 0.267061 1.692910 -0.267061
v 0.267061 1.692910 0.267061
v -0.378520 2.197293 0.378520
v -0.378520 2.954333 0.378520
v -0.378520 2.197293 -0.378520
v -0.378520 2.954333 -0.378520
v 0.378520 2.197293 0.378520
v 0.378520 2.954333 0.378520
v 0.378520 2.197293 -0.378520
v 0.378520 2.954333 -0.378520
vn -0.5774 0.5774 0.5774
vn -0.5774 -0.5774 -0.5774
vn -0.5774 -0.5774 0.5774
vn -0.5774 0.5774 -0.5774
vn 0.5774 -0.5774 -0.5774
vn 0.5774 0.5774 -0.5774
vn 0.5774 -0.5774 0.5774
vn 0.5774 0.5774 0.5774
vn 0.1504 0.9771 0.1504
vn -0.3837 0.8400 0.3837
vn -0.1504 0.9771 0.1504
vn -0.1504 0.9771 -0.1504
vn 0.1504 0.9771 -0.1504
vn -0.3837 0.8400 -0.3837
vn 0.3837 0.8400 0.3837
vn 0.3837 0.8400 -0.3837
vt 0.983966 0.000000
vt -0.017054 0.000480
vt 0.000000 1.000000
vt 0.043075 0.699836
vt 0.983966 1.000000
vt -0.017054 1.000480
vt 0.977953 0.867716
vt 0.983966 0.000000
vt -0.016034 0.000000
vt -0.018039 0.809592
vt -0.016034 1.000000
vt 0.983966 1.000000
vt 0.981961 0.809592
vt 0.983485 -0.001019
vt -0.016034 0.000000
vt 1.000000 1.000000
vt -0.018039 0.809592
vt -0.016034 1.000000
vt 0.982946 1.000480
vt 0.976933 0.854167
vt 0.983966 0.000000
vt -0.016034 0.000000
vt 1.000000 0.000000
vt -0.018039 0.809592
vt -0.016034 1.000000
vt 0.983966 1.000000
vt 0.981961 0.809592
vt 0.000985 0.655742
vt 0.963923 0.745455
vt -0.019058 0.810072
vt 0.773515 0.308518
vt 0.847674 0.336579
vt 0.230494 0.260415
vt -0.018039 0.809592
vt 0.981961 0.809592
vt 0.268602 0.999948
vt 0.140301 0.346600
vt 0.981961 0.809592
vt -0.018039 0.809592
vt 0.730353 0.654274
vt 0.261198 0.659547
vt -0.018039 0.809592
vt 0.932839 0.757961
vt 0.980942 0.810072
vt 0.117234 0.337059
vt 1.000000 1.000000
vt 0.955906 0.727416
vt 0.983966 0.000000
vt 0.000052 0.319409
vt 0.120258 0.663279
vt 0.000000 0.000000
vt 0.002004 0.817609
vt 0.268602 0.000052
vt 0.865689 0.413482
vt 0.954886 0.369128
vt 0.000000 1.000000
vt 0.094225 0.406452
vt 0.211728 0.243599
vt -0.004409 0.986567
vt 0.005412 0.999867
vt 0.888487 0.243599
vt 0.972340 0.986567
vt 0.856350 0.909732
vt 0.999455 0.676298
vt 0.005412 0.009618
vt 0.211728 0.920359
vt 0.888487 0.920359
vt 0.471286 1.038807
vt 0.856350 0.260097
vt -0.004409 0.009818
vt 0.000197 0.996528
vt 0.995661 0.999867
vt 0.999803 0.998532
vt 0.972340 0.009818
vt 0.206714 0.909732
vt -0.019846 0.006944
vt 0.636946 0.148129
vt 0.995661 0.009618
vt 0.206714 0.260097
vt 0.108777 0.510638
vt 0.999803 0.002935
s 1
usemtl new
f 2/5/1 3/9/2 1/1/3
f 4/12/4 7/22/5 3/8/2
f 8/26/6 5/15/7 7/21/5
f 6/19/8 1/2/3 5/14/7
f 7/23/5 1/3/3 3/9/2
f 8/27/6 12/42/9 6/17/8
f 12/43/9 13/45/10 9/28/11
f 2/7/1 10/34/12 4/10/4
f 6/20/8 9/30/11 2/4/1
f 4/13/4 11/39/13 8/24/6
f 14/48/14 16/56/15 15/51/16
f 10/32/12 15/52/16 11/37/13
f 11/40/13 16/57/15 12/41/9
f 9/31/11 14/50/14 10/33/12
usemtl othernew
f 18/61/1 19/66/2 17/58/3
f 20/68/4 23/77/5 19/64/2
f 24/81/6 21/71/7 23/76/5
f 22/74/8 17/59/3 21/70/7
f 23/78/5 17/60/3 19/65/2
f 20/69/4 22/75/8 24/79/6
usemtl new
f 2/5/1 4/11/4 3/9/2
f 4/12/4 8/25/6 7/22/5
f 8/26/6 6/18/8 5/15/7
f 6/19/8 2/6/1 1/2/3
f 7/23/5 5/16/7 1/3/3
f 8/27/6 11/38/13 12/42/9
f 12/43/9 16/55/15 13/45/10
f 2/7/1 9/29/11 10/34/12
f 6/20/8 12/44/9 9/30/11
f 4/13/4 10/35/12 11/39/13
f 14/48/14 13/46/10 16/56/15
f 10/36/12 14/49/14 15/53/16
f 11/40/13 15/54/16 16/57/15
f 9/31/11 13/47/10 14/50/14
usemtl othernew
f 18/61/1 20/67/4 19/66/2
f 20/68/4 24/80/6 23/77/5
f 24/81/6 22/73/8 21/71/7
f 22/74/8 18/62/1 17/59/3
f 23/78/5 21/72/7 17/60/3
f 20/69/4 18/63/1 22/75/8
