# Blender 3.1.0
# www.blender.org
mtllib point_light.mtl
o Bulb
v 0.372476 0.092170 0.000000
v 0.276116 1.448507 0.000000
v 0.000000 0.063689 -0.000000
v 0.000000 1.493601 0.000000
v 0.663928 0.476513 0.000000
v 0.000000 0.376830 0.000000
v 0.740826 0.790120 0.000000
v 0.690035 1.055309 0.000000
v 0.531968 1.292018 0.000000
v 0.000000 0.626830 0.000000
v 0.000000 0.876830 0.000000
v 0.000000 1.126830 0.000000
v 0.277579 -0.159522 -0.000000
v 0.000000 -0.174487 -0.000000
v 0.257142 -0.329073 -0.000000
v 0.000000 -0.341007 -0.000000
v 0.258502 -0.376573 -0.000000
v 0.000000 -0.390341 -0.000000
v 0.217279 -0.432208 -0.000000
v 0.000000 -0.442933 -0.000000
v 0.255974 -0.481395 -0.000000
v 0.000000 -0.496277 -0.000000
v 0.222699 -0.551388 -0.000000
v 0.000000 -0.562990 -0.000000
v 0.253601 -0.615613 -0.000000
v 0.000000 -0.629776 -0.000000
v 0.197686 -0.703381 -0.000000
v 0.000000 -0.712893 -0.000000
v -0.372476 0.092170 0.000000
v -0.276116 1.448507 0.000000
v -0.663928 0.476513 0.000000
v -0.740826 0.790120 0.000000
v -0.690035 1.055309 0.000000
v -0.531968 1.292018 0.000000
v -0.277579 -0.159522 -0.000000
v -0.257142 -0.329073 -0.000000
v -0.258502 -0.376573 -0.000000
v -0.217279 -0.432208 -0.000000
v -0.255974 -0.481395 -0.000000
v -0.222699 -0.551388 -0.000000
v -0.253601 -0.615613 -0.000000
v -0.197686 -0.703381 -0.000000
vn -0.0000 -0.0000 1.0000
vt 0.753117 0.324698
vt 0.693267 0.974093
vt 0.502494 0.305699
vt 0.500000 1.000000
vt 0.915212 0.489637
vt 0.497506 0.436097
vt 0.997506 0.654361
vt 0.967581 0.784542
vt 0.870324 0.892271
vt 0.497506 0.523100
vt 0.500000 0.651554
vt 0.507481 0.774827
vt 0.504988 0.773100
vt 0.718344 0.243523
vt 0.507341 0.238342
vt 0.700748 0.200345
vt 0.507481 0.202073
vt 0.703242 0.170984
vt 0.507481 0.174439
vt 0.703242 0.139896
vt 0.497506 0.139896
vt 0.695761 0.115717
vt 0.497506 0.113990
vt 0.708447 0.087444
vt 0.497506 0.086356
vt 0.698098 0.061278
vt 0.495012 0.065630
vt 0.596908 0.010173
vt 0.497506 0.006908
vt 0.753117 0.324698
vt 0.693267 0.974093
vt 0.915212 0.489637
vt 0.997506 0.654361
vt 0.967581 0.784542
vt 0.870324 0.892271
vt 0.718344 0.243523
vt 0.700748 0.200345
vt 0.703242 0.170984
vt 0.703242 0.139896
vt 0.695761 0.115717
vt 0.708447 0.087444
vt 0.698098 0.061278
vt 0.596908 0.010173
s 0
usemtl Bulb_Mat
f 12/13/1 2/2/1 4/4/1
f 1/1/1 6/6/1 3/3/1
f 5/5/1 10/10/1 6/6/1
f 7/7/1 11/11/1 10/10/1
f 11/11/1 9/9/1 12/12/1
f 3/3/1 13/14/1 1/1/1
f 14/15/1 15/16/1 13/14/1
f 16/17/1 17/18/1 15/16/1
f 18/19/1 19/20/1 17/18/1
f 19/20/1 22/23/1 21/22/1
f 22/23/1 23/24/1 21/22/1
f 23/24/1 26/27/1 25/26/1
f 26/27/1 27/28/1 25/26/1
f 12/13/1 9/9/1 2/2/1
f 1/1/1 5/5/1 6/6/1
f 5/5/1 7/7/1 10/10/1
f 7/7/1 8/8/1 11/11/1
f 11/11/1 8/8/1 9/9/1
f 3/3/1 14/15/1 13/14/1
f 14/15/1 16/17/1 15/16/1
f 16/17/1 18/19/1 17/18/1
f 18/19/1 20/21/1 19/20/1
f 19/20/1 20/21/1 22/23/1
f 22/23/1 24/25/1 23/24/1
f 23/24/1 24/25/1 26/27/1
f 26/27/1 28/29/1 27/28/1
f 12/13/1 4/4/1 30/31/1
f 29/30/1 3/3/1 6/6/1
f 31/32/1 6/6/1 10/10/1
f 32/33/1 10/10/1 11/11/1
f 11/11/1 12/12/1 34/35/1
f 3/3/1 29/30/1 35/36/1
f 14/15/1 35/36/1 36/37/1
f 16/17/1 36/37/1 37/38/1
f 18/19/1 37/38/1 38/39/1
f 38/39/1 39/40/1 22/23/1
f 22/23/1 39/40/1 40/41/1
f 40/41/1 41/42/1 26/27/1
f 26/27/1 41/42/1 42/43/1
f 12/13/1 30/31/1 34/35/1
f 29/30/1 6/6/1 31/32/1
f 31/32/1 10/10/1 32/33/1
f 32/33/1 11/11/1 33/34/1
f 11/11/1 34/35/1 33/34/1
f 3/3/1 35/36/1 14/15/1
f 14/15/1 36/37/1 16/17/1
f 16/17/1 37/38/1 18/19/1
f 18/19/1 38/39/1 20/21/1
f 38/39/1 22/23/1 20/21/1
f 22/23/1 40/41/1 24/25/1
f 40/41/1 26/27/1 24/25/1
f 26/27/1 42/43/1 28/29/1
